<?xml version="1.0" encoding="UTF-8"?><!DOCTYPE svg PUBLIC "-//W3C//DTD SVG 1.1//EN" "http://www.w3.org/Graphics/SVG/1.1/DTD/svg11.dtd"><svg xmlns="http://www.w3.org/2000/svg" xmlns:xlink="http://www.w3.org/1999/xlink" version="1.1" id="Layer_1" x="0px" y="0px" width="24px" height="24px" viewBox="0 0 24 24" xml:space="preserve"><path d="M19.5 7.5c-.4-.4-.9-.7-1.4-.7H5.9c-.5 0-1.1.2-1.4.7-.4.5-.5 1-.5 1.6l1.4 10.1c.1.6.4 1.1.9 1.4l4.7 2.7c.3.2.6.3 1 .3.3 0 .7-.1 1-.3l4.7-2.7c.5-.3.9-.8.9-1.4L20 9.1c0-.6-.1-1.1-.5-1.6zM16 11.1H8.5l.4 2.6H15.9l.1.1.1.1V14.2l-.4 3.1c0 .1-.1.3-.2.3l-3.1 1.8c-.1 0-.2.1-.2.1s-.2 0-.2-.1l-3.1-1.8c-.1-.1-.2-.2-.2-.3l-.1-1c0-.3.1-.5.4-.5.3 0 .5.1.5.4l-.2.8 2.7 1.5 2.7-1.5.3-2.4H8.3h-.1s-.1 0-.1-.1v-.1s0-.1-.1-.1v-.1-.1l-.5-3.6c0-.1 0-.3.1-.4.1-.1.2-.2.4-.2h8c.3 0 .5.2.5.5 0 .4-.2.7-.5.7z"/><path d="M5 5.8c.3 0 .5-.2.5-.5V3.6h1.2v1.7c0 .3.2.5.5.5s.5-.2.5-.5V1c0-.3-.2-.5-.5-.5s-.4.2-.4.5v1.7H5.5V1c0-.3-.2-.5-.5-.5s-.4.2-.4.5v4.4c0 .2.2.4.4.4z"/><path d="M8.6 1.5h.6V5.4c0 .3.2.5.5.5s.5-.2.5-.5V1.5h.6c.3 0 .5-.2.5-.5s-.2-.5-.5-.5H8.6c-.3 0-.5.2-.5.5 0 .2.2.5.5.5z"/><path d="M12.1 5.8c.3 0 .5-.2.5-.5V1.5H14V5.4c0 .3.2.5.5.5s.5-.2.5-.5V1.5h1.4V5.4c0 .3.2.5.5.5H19c.3 0 .5-.2.5-.5s-.2-.5-.5-.5h-1.7V1c0-.3-.2-.5-.5-.5h-4.6c-.3 0-.5.2-.5.5v4.4c-.1.2.2.4.4.4z"/><metadata><rdf:RDF xmlns:rdf="http://www.w3.org/1999/02/22-rdf-syntax-ns#" xmlns:rdfs="http://www.w3.org/2000/01/rdf-schema#" xmlns:dc="http://purl.org/dc/elements/1.1/"><rdf:Description about="https://iconscout.com/legal#licenses" dc:title="html,five" dc:description="html,five" dc:publisher="Iconscout" dc:date="2018-01-30" dc:format="image/svg+xml" dc:language="en"><dc:creator><rdf:Bag><rdf:li>Roundicons.com</rdf:li></rdf:Bag></dc:creator></rdf:Description></rdf:RDF></metadata></svg>