<?xml version="1.0" encoding="UTF-8" standalone="no"?><svg xmlns="http://www.w3.org/2000/svg" xmlns:xlink="http://www.w3.org/1999/xlink" width="20px" height="18px" viewBox="0 0 20 18" version="1.1"><title>swift [#146]</title><g id="Page-1" stroke="none" stroke-width="1" fill="none" fill-rule="evenodd"><g id="Dribbble-Light-Preview" transform="translate(-380.000000, -7520.000000)" fill="#000"><g id="icons" transform="translate(56.000000, 160.000000)"><path d="M336.322 7360c8.791 6.025 5.948 12.668 5.948 12.668s2.5 2.844 1.489 5.332c0 0-1.031-1.742-2.76-1.742-1.667 0-2.646 1.742-6 1.742-7.468 0-10.999-6.288-10.999-6.288 6.728 4.461 11.322 1.302 11.322 1.302-3.031-1.773-9.479-10.254-9.479-10.254 5.615 4.817 8.042 6.088 8.042 6.088-1.448-1.207-5.511-7.106-5.511-7.106 3.25 3.317 9.708 7.945 9.708 7.945 1.834-5.122-1.76-9.687-1.76-9.687" id="swift-[#146]"/></g></g></g><metadata><rdf:RDF xmlns:rdf="http://www.w3.org/1999/02/22-rdf-syntax-ns#" xmlns:rdfs="http://www.w3.org/2000/01/rdf-schema#" xmlns:dc="http://purl.org/dc/elements/1.1/"><rdf:Description about="https://iconscout.com/legal#licenses" dc:title="swift" dc:description="swift" dc:publisher="Iconscout" dc:date="2017-09-15" dc:format="image/svg+xml" dc:language="en"><dc:creator><rdf:Bag><rdf:li>Alexandru Stoica</rdf:li></rdf:Bag></dc:creator></rdf:Description></rdf:RDF></metadata></svg>